<?xml version="1.0" encoding="utf-8"?>
<!-- Generator: Adobe Illustrator 19.0.1, SVG Export Plug-In . SVG Version: 6.00 Build 0)  -->
<svg version="1.1" id="Layer_1" xmlns="http://www.w3.org/2000/svg" xmlns:xlink="http://www.w3.org/1999/xlink" x="0px" y="0px"
	 viewBox="0 0 170.2 32" style="enable-background:new 0 0 170.2 32;" xml:space="preserve">
<style type="text/css">
	.st0{fill:#FFFFFF;}
	.st1{fill:#4BB2C3;}
</style>
<g>
	<g>
		<path class="st0" d="M54.3,30.8H44l-8.9-30h9.2l1.5,5.3c1.4,5.1,2.8,10.2,3.4,15.5c0.7-5.2,2-10.4,3.4-15.4l1.5-5.4h9.3L54.3,30.8
			z"/>
		<path class="st0" d="M75.7,30.8h-9.1v-30h9.1V30.8z"/>
		<path class="st0" d="M107,7.6l-9.7,10.7c-1.4,1.5-2.4,2.5-4.8,4.9c3.4-0.1,4.8-0.2,6.4-0.2h8.6v7.8H81v-7.3l10.4-11.4
			c1.1-1.2,1.8-1.9,3.7-3.7c-3.4,0.1-2.4,0.1-5.5,0.1l-7.8,0V0.8H107V7.6z"/>
		<path class="st0" d="M140.3,15.8c0,9.4-6,15.7-14.9,15.7c-9.1,0-15.2-6.3-15.2-15.8c0-9.5,6.1-15.8,15.3-15.8
			C134.3,0,140.3,6.4,140.3,15.8z M119.4,15.6c0,5.3,2.2,8.4,5.9,8.4c3.7,0,5.7-3,5.7-8.7c0-5-2.1-8-5.8-8
			C121.6,7.4,119.4,10.5,119.4,15.6z"/>
		<path class="st0" d="M160.4,30.8h-10.3l-8.9-30h9.2l1.5,5.3c1.4,5.1,2.8,10.2,3.4,15.5c0.7-5.2,2-10.4,3.4-15.4l1.5-5.4h9.3
			L160.4,30.8z"/>
	</g>
	<polygon class="st0" points="10.8,26.2 14.2,22.9 7.7,16.3 12,12.1 16.7,7.4 23.2,14 26.5,10.7 20.1,4.1 24,0.2 12,0.1 0.1,0 0,12 
		0,24 4.4,19.6 	"/>
	<polygon class="st1" points="32,19.9 32,7.9 23,16.8 16.7,10.4 10.5,16.5 16.9,22.9 8,31.7 20,31.8 31.9,31.9 	"/>
</g>
</svg>
