<?xml version="1.0" encoding="utf-8"?>
<!-- Generator: Adobe Illustrator 19.0.1, SVG Export Plug-In . SVG Version: 6.00 Build 0)  -->
<svg version="1.1" id="Layer_1" xmlns="http://www.w3.org/2000/svg" xmlns:xlink="http://www.w3.org/1999/xlink" x="0px" y="0px"
	 viewBox="-220 381 148 32" style="enable-background:new -220 381 148 32;" xml:space="preserve">
<style type="text/css">
	.st0{fill:#FFFFFF;}
	.st1{fill:#174855;}
</style>
<g>
	<path class="st0" d="M-166.3,413h-10.9l-9.4-31.7h9.7l1.6,5.6c1.5,5.4,3,10.8,3.6,16.4c0.7-5.5,2.1-11,3.6-16.3l1.6-5.7h9.8
		L-166.3,413z"/>
	<path class="st0" d="M-148,413h-7.4v-24.3h7.4V413z"/>
	<path class="st0" d="M-122.6,394.2l-7.9,8.7c-1.1,1.2-1.9,2-3.9,4c2.8-0.1,3.9-0.2,5.2-0.2h7v6.3h-21.5v-5.9l8.4-9.2
		c0.9-1,1.5-1.5,3-3c-2.8,0.1-1.9,0.1-4.5,0.1h-6.3v-6.2h20.4V394.2z"/>
	<path class="st0" d="M-95.6,400.3c0,7.6-4.9,12.7-12.1,12.7c-7.4,0-12.3-5.1-12.3-12.8c0-7.7,4.9-12.8,12.4-12.8
		C-100.5,387.5-95.6,392.7-95.6,400.3z M-112.6,400.1c0,4.3,1.8,6.8,4.8,6.8s4.6-2.4,4.6-7c0-4-1.7-6.5-4.7-6.5
		C-110.8,393.5-112.6,396-112.6,400.1z"/>
	<path class="st0" d="M-79.4,413h-8.3l-7.2-24.3h7.5l1.2,4.3c1.1,4.1,2.3,8.3,2.8,12.6c0.6-4.2,1.6-8.4,2.8-12.5l1.2-4.4h7.5
		L-79.4,413z"/>
</g>
<g>
	<polygon class="st0" points="-209.2,407.2 -205.8,403.9 -212.3,397.3 -208,393.1 -203.3,388.4 -196.8,395 -193.5,391.7 
		-199.9,385.1 -195.9,381 -208,381.1 -219.9,381 -220,393 -220,405 -215.6,400.6 	"/>
	<polygon class="st1" points="-188,400.9 -188,388.9 -197,397.8 -203.3,391.4 -209.5,397.5 -203.1,403.9 -212,413 -200,413 
		-188.1,413 	"/>
</g>
</svg>
